<svg width="40" height="40" viewBox="0 0 40 40" fill="none" xmlns="http://www.w3.org/2000/svg">
<g clip-path="url(#clip0)">
<path d="M0.706632 19.2859L9.92343 22.7259L13.4909 34.1989C13.7192 34.9337 14.6177 35.2053 15.2141 34.7177L20.3517 30.5294C20.8902 30.0906 21.6573 30.0687 22.2201 30.4773L31.4865 37.2049C32.1245 37.6686 33.0284 37.319 33.1884 36.5481L39.9765 3.89593C40.1512 3.0538 39.3237 2.35127 38.5218 2.6614L0.695832 17.2535C-0.237634 17.6135 -0.229501 18.9351 0.706632 19.2859ZM12.916 20.8947L30.929 9.80046C31.2528 9.60166 31.5858 10.0394 31.3078 10.2973L16.4418 24.1159C15.9193 24.6023 15.5822 25.2533 15.4868 25.9598L14.9804 29.7126C14.9133 30.2137 14.2094 30.2634 14.0712 29.7785L12.1236 22.9351C11.9005 22.1546 12.2256 21.3209 12.916 20.8947Z" fill="white"/>
</g>
<defs>
<clipPath id="clip0">
<rect width="40" height="40" fill="white"/>
</clipPath>
</defs>
</svg>
